<svg width="28" height="28" viewBox="0 0 28 28" fill="none" xmlns="http://www.w3.org/2000/svg">
<path d="M5.3335 21.5833V19.9583H7.6085V11.6708C7.6085 10.1542 8.05537 8.8045 8.94912 7.62187C9.84287 6.43923 11.021 5.69443 12.4835 5.38749V4.60207C12.4835 4.1868 12.6325 3.84374 12.9304 3.57291C13.2283 3.30207 13.5849 3.16666 14.0002 3.16666C14.4154 3.16666 14.772 3.30207 15.07 3.57291C15.3679 3.84374 15.5168 4.1868 15.5168 4.60207V5.38749C16.9793 5.69443 18.162 6.43923 19.0647 7.62187C19.9675 8.8045 20.4189 10.1542 20.4189 11.6708V19.9583H22.6668V21.5833H5.3335ZM14.0002 24.8333C13.4224 24.8333 12.9168 24.6212 12.4835 24.1969C12.0502 23.7726 11.8335 23.2625 11.8335 22.6667H16.1668C16.1668 23.2625 15.9547 23.7726 15.5304 24.1969C15.1061 24.6212 14.596 24.8333 14.0002 24.8333Z" fill="#626273"/>
</svg>
