<svg width="36" height="36" viewBox="0 0 36 36" fill="none" xmlns="http://www.w3.org/2000/svg">
<path d="M0 7.51257C0 6.82222 0.528846 6.26257 1.18121 6.26257H16.8188C17.4712 6.26257 18 6.82222 18 7.51257C18 8.20293 17.4712 8.76257 16.8188 8.76257H1.18121C0.528846 8.76257 0 8.20293 0 7.51257Z" fill="#626273"/>
<path d="M0 16.0126C0 15.3222 0.479878 14.7626 1.07184 14.7626H12.9282C13.5201 14.7626 14 15.3222 14 16.0126C14 16.7029 13.5201 17.2626 12.9282 17.2626H1.07184C0.479878 17.2626 0 16.7029 0 16.0126Z" fill="#626273"/>
<path d="M0 24.5126C0 23.8222 0.528846 23.2626 1.18121 23.2626H16.8188C17.4712 23.2626 18 23.8222 18 24.5126C18 25.2029 17.4712 25.7626 16.8188 25.7626H1.18121C0.528846 25.7626 0 25.2029 0 24.5126Z" fill="#626273"/>
<path d="M29.1713 10.7419C25.9682 7.5711 20.8251 7.52017 17.6855 10.6281C14.5458 13.7361 14.5973 18.8273 17.8004 21.9981C20.6379 24.8069 24.9982 25.164 28.1375 23.049L32.1356 27.4661C32.8154 28.2201 33.9842 28.2624 34.6907 27.5631L34.793 27.4618C35.4995 26.7625 35.4567 25.6054 34.6951 24.9325L30.2329 20.9747C32.3729 17.8637 32.0088 13.5507 29.1713 10.7419ZM27.2947 20.1404C25.2335 22.1808 21.8553 22.1474 19.7524 20.0657C17.6495 17.984 17.6157 14.64 19.6769 12.5995C21.7382 10.5591 25.1164 10.5925 27.2192 12.6742C29.3256 14.7593 29.3559 18.1 27.2947 20.1404Z" fill="#626273"/>
</svg>
