<svg width="118" height="36" viewBox="0 0 118 36" fill="none" xmlns="http://www.w3.org/2000/svg">
<path d="M33.377 8.41078C33.2953 8.22476 33.1765 8.05738 33.0279 7.9189C32.8794 7.7769 32.7026 7.66794 32.509 7.59918C32.3161 7.53015 32.1111 7.50087 31.9066 7.5131C29.9497 7.69901 28.0138 8.06287 26.1229 8.60015L26.0639 8.52145C25.1754 9.1342 24.1343 9.48837 23.0566 9.54456C21.4828 10.1344 19.959 10.8499 18.5 11.6842L18.35 11.608C17.6943 11.2391 17.0385 10.9013 16.3828 10.5947L16.1541 10.489C15.4803 10.1766 14.2164 9.66999 13.9705 9.57407C12.8443 9.39454 11.9 8.77231 10.8967 8.5731C9.00015 8.03513 7.05715 7.67693 5.09344 7.50326C4.88643 7.49023 4.67893 7.51952 4.48361 7.58934C4.29249 7.66328 4.11845 7.77542 3.97213 7.9189C3.8242 8.05801 3.70549 8.22523 3.62295 8.41078C3.54245 8.59805 3.50063 8.79965 3.5 9.00349L3.5 18.0024C3.50381 21.7091 4.8901 25.2811 7.3877 28.0196C7.42197 28.078 7.46148 28.1331 7.50574 28.1844C9.55227 30.399 12.2191 31.9447 15.1577 32.6197C18.0964 33.2946 21.1703 33.0674 23.9778 31.9677C26.7854 30.868 29.196 28.9469 30.8948 26.4555C32.5936 23.9641 33.5015 21.0181 33.5 18.0024V9.00349C33.4994 8.79965 33.4575 8.59805 33.377 8.41078ZM8.04918 23.7156C8.04918 23.7476 8.02213 23.7796 8.01229 23.8115C7.01906 22.0367 6.49832 20.0364 6.5 18.0024V10.6956C9.67315 11.1915 12.7536 12.1623 15.6377 13.5755C12.2428 16.0935 9.64362 19.5349 8.15 23.4894L8.04918 23.7156ZM30.5 18.0024C30.4961 21.1843 29.2306 24.2348 26.981 26.4847C24.7314 28.7347 21.6814 30.0004 18.5 30.0043C15.439 30.0164 12.4924 28.8413 10.2795 26.7259C12.6943 17.3802 21.0992 12.0777 30.5 10.6833V18.0024Z" fill="#54BE6F"/>
<path d="M13.9309 9.55444C15.1882 8.09347 16.7468 6.92217 18.4998 6.12112C20.253 6.91264 21.8097 8.08164 23.0588 9.54461C24.1366 9.48841 25.1777 9.13424 26.0662 8.5215C24.2739 6.06378 21.8119 4.17428 18.9744 3.07884C18.6659 2.97372 18.3313 2.97372 18.0227 3.07884C15.1649 4.18278 12.688 6.09114 10.8916 8.57314C11.8949 8.77236 12.8318 9.38475 13.9703 9.57412L13.9309 9.55444Z" fill="#8FDC1E"/>
<path d="M50.2209 20.4701H44.9652V17.7105H50.2209C51.1361 17.7105 51.8757 17.5626 52.4396 17.2668C53.0036 16.971 53.415 16.5642 53.6738 16.0465C53.9419 15.5195 54.076 14.9186 54.076 14.2438C54.076 13.6059 53.9419 13.0096 53.6738 12.4549C53.415 11.891 53.0036 11.438 52.4396 11.0959C51.8757 10.7538 51.1361 10.5828 50.2209 10.5828H46.033V28H42.5523V7.80938H50.2209C51.7833 7.80938 53.1099 8.08672 54.2008 8.64141C55.3009 9.18685 56.1376 9.94492 56.7107 10.9156C57.2839 11.8771 57.5705 12.9772 57.5705 14.216C57.5705 15.5195 57.2839 16.6382 56.7107 17.5719C56.1376 18.5056 55.3009 19.2221 54.2008 19.7213C53.1099 20.2205 51.7833 20.4701 50.2209 20.4701ZM66.679 7.80938V28H63.1984V7.80938H66.679ZM84.6071 7.80938H88.0739V21.3021C88.0739 22.8368 87.7411 24.1218 87.0754 25.1572C86.4098 26.1926 85.5038 26.9738 84.3575 27.5008C83.2204 28.0185 81.9492 28.2773 80.544 28.2773C79.0926 28.2773 77.7983 28.0185 76.6612 27.5008C75.5241 26.9738 74.6273 26.1926 73.971 25.1572C73.3238 24.1218 73.0003 22.8368 73.0003 21.3021V7.80938H76.467V21.3021C76.467 22.2729 76.6335 23.0725 76.9663 23.7012C77.2991 24.3206 77.7706 24.7782 78.3807 25.074C78.9909 25.3699 79.712 25.5178 80.544 25.5178C81.376 25.5178 82.0925 25.3699 82.6934 25.074C83.3036 24.7782 83.7751 24.3206 84.1079 23.7012C84.4407 23.0725 84.6071 22.2729 84.6071 21.3021V7.80938ZM95.5461 7.80938H98.6523L104.49 23.3822L110.315 7.80938H113.421L105.711 28H103.242L95.5461 7.80938ZM94.1316 7.80938H97.0853L97.5984 21.2883V28H94.1316V7.80938ZM111.882 7.80938H114.849V28H111.369V21.2883L111.882 7.80938Z" fill="#464656"/>
</svg>
