<svg width="28" height="28" viewBox="0 0 28 28" fill="none" xmlns="http://www.w3.org/2000/svg">
<path d="M14 13.6801C12.6594 13.6801 11.5625 13.2535 10.7094 12.4004C9.85625 11.5473 9.42969 10.4504 9.42969 9.10977C9.42969 7.76915 9.85625 6.67227 10.7094 5.81915C11.5625 4.96602 12.6594 4.53946 14 4.53946C15.3406 4.53946 16.4375 4.96602 17.2906 5.81915C18.1438 6.67227 18.5703 7.76915 18.5703 9.10977C18.5703 10.4504 18.1438 11.5473 17.2906 12.4004C16.4375 13.2535 15.3406 13.6801 14 13.6801ZM4.25 23.4606V20.5965C4.25 19.8246 4.44297 19.1645 4.82891 18.616C5.21484 18.0676 5.7125 17.6512 6.32188 17.3668C7.68281 16.7574 8.98789 16.3004 10.2371 15.9957C11.4863 15.691 12.7406 15.5387 14 15.5387C15.2594 15.5387 16.5086 15.6961 17.7477 16.0109C18.9867 16.3258 20.2867 16.7777 21.6477 17.3668C22.2773 17.6512 22.7852 18.0676 23.1711 18.616C23.557 19.1645 23.75 19.8246 23.75 20.5965V23.4606H4.25Z" fill="#5A5A5A"/>
</svg>
