<svg width="24" height="24" viewBox="0 0 24 24" fill="none" xmlns="http://www.w3.org/2000/svg">
<path d="M14.2072 5.72179C11.817 3.33157 7.97907 3.29318 5.6362 5.63605C3.29332 7.97893 3.33171 11.8168 5.72193 14.2071C7.83935 16.3245 11.0932 16.5937 13.4358 14.9993L16.4193 18.3291C16.9265 18.8974 17.7988 18.9293 18.3259 18.4022L18.4023 18.3258C18.9295 17.7986 18.8976 16.9264 18.3292 16.4191L14.9994 13.4357C16.5964 11.0905 16.3246 7.83921 14.2072 5.72179ZM12.8069 12.8067C11.2687 14.3449 8.74782 14.3196 7.17859 12.7504C5.60936 11.1812 5.58414 8.66029 7.12229 7.12214C8.66044 5.584 11.1813 5.60921 12.7506 7.17844C14.3224 8.75027 14.345 11.2686 12.8069 12.8067Z" fill="#626273"/>
</svg>
